<svg xmlns="http://www.w3.org/2000/svg" viewBox="0 0 130.67 136"><g data-name="Ebene 2"><path d="m5.33 82.53 4.25 1.81s-1.7-53.75 54.86-62.33c0 0-56.13-.45-59.11 60.53Z" style="fill:#e7e7e7;opacity:.5"/><path d="m23.56 87.5 3.01 1.28s-1.2-38.04 38.82-44.11c0 0-39.72-.32-41.83 42.83" style="fill:#e7e7e7"/></g><g data-name="Ebene 1"><path d="M107.34 88.98q.15-1.755.15-3.54c0-22.92-18.58-41.51-41.51-41.51S24.47 62.51 24.47 85.44c0 .65.03 1.29.06 1.93-.11.04-.21.07-.33.12 0 0 .3 2.32.75 3.66 0 0 1.27-1.42 5.98-2.47 2.04-.45 4.18-.6 5.96-.62 12.98 16.78 30.29 15 30.29 15 13.55-.52 22.11-8.44 26.87-14.91 1.56.12 3.92.55 6.85 1.88 4.39 2 5.86 3.72 5.86 3.72.51-1.32.91-4.62.91-4.62-.12-.05-.23-.1-.34-.15Zm-69.03-4" style="fill:#fff"/><path d="M97.83 38.95a56.36 56.36 0 0 0-32.85-10.51s-2.64.06-6.71.84l.45 3.77.4 3.35.03.21c1.91-.23 3.86-.35 5.83-.35 5.85 0 11.45 1.02 16.66 2.89 4.06 1.49 7.96 3.53 11.59 6.13l.06-.08 4.54-6.23Z" style="fill:#97c33a"/><path d="M34.67 87.11 24.2 88.37s-1.87-39.03 41.19-43.7c0 0-26.87-.22-31.61 32.07 0 0-.89 4.44.89 10.37" style="fill:#e7e7e7;opacity:.5"/><path d="M20.6 57.67c-3.3 7.32-5.38 16.46-5.38 27.89 0 0 .52-3.84.74-5.74.87-7.45 3.41-14.38 7.21-20.44l-2.58-1.71Z" style="fill:#e51d21"/><path d="M24.81 91.13c4.16-2.24 10.19-3.11 14.9-3.43m53.69.12c5.14.82 11.27 1.71 13.71 5.41" style="fill:none;stroke:#181716;stroke-linecap:round;stroke-linejoin:round;stroke-width:.75px"/><path d="M95.11 85.56c4.43.44 8.84 1.45 12.84 3.51l-.75.38c.29-5.67-.52-11.36-2.44-16.63-5.55-15.86-21.45-27.42-38.25-27.38-22.9-.82-43.04 19.94-41.74 42.92l-.67-.43c2.91-.95 5.84-1.85 8.86-2.37 1-.16 2.03-.3 3.04-.21-4.02.35-7.82 2.09-11.55 3.51-.3.13-.67-.1-.67-.43-.69-5.78.09-11.72 1.96-17.29 7.95-23.67 35.48-35.36 58.08-24.78 16.25 7.32 26.77 25.45 24.37 43.19-.03.36-.45.57-.75.38-3.74-2.23-8.05-3.51-12.32-4.35Z" style="fill:#181716"/><path d="M126.32 82.46C126.32 49.07 99.25 22 65.86 22c-.99 0-1.97.02-2.95.07C30.89 23.61 5.4 50.06 5.4 82.46" style="fill:none;stroke:#181716;stroke-linecap:round;stroke-linejoin:round;stroke-width:2px"/><path d="M68.38 98.41c-.67 0-1.3-.34-1.67-.91L49.74 71.52c-.42-.65-.43-1.49-.03-2.15a2.01 2.01 0 0 1 1.93-.94c3.53.41 10.56 6.14 14.14 9.24 2.67-4.66 9.51-16.35 18.86-30.35 12.13-18.17 25.88-33.39 26.01-33.54a1.994 1.994 0 0 1 3.02 2.6C96.76 37.05 70.46 96.59 70.2 97.19c-.29.67-.93 1.13-1.67 1.19h-.16Z" style="fill:#fff"/><path d="M112.14 15.14C94.86 36.26 68.38 96.41 68.38 96.41L51.41 70.43c3.95.46 14.9 10.39 14.9 10.39S74.12 66.7 86.3 48.45s25.83-33.31 25.83-33.31m.01-4c-1.09 0-2.18.44-2.96 1.31-.57.62-13.99 15.49-26.2 33.77C74.79 58.49 68.51 69 65.26 74.59c-4.4-3.69-9.93-7.73-13.38-8.14-.16-.02-.31-.03-.46-.03-1.37 0-2.67.71-3.4 1.89-.82 1.32-.8 2.99.05 4.29l16.97 25.98a4 4 0 0 0 3.35 1.81c.11 0 .22 0 .33-.01a4 4 0 0 0 3.33-2.37c.26-.6 26.46-59.9 43.19-80.35a3.993 3.993 0 0 0-.49-5.56 3.97 3.97 0 0 0-2.61-.97Zm0 8" style="fill:#181716"/><path d="M107.52 89.04S99.48 85.47 94 85.42" style="fill:none;stroke:#181716;stroke-linecap:round;stroke-linejoin:round;stroke-width:.75px"/><path d="M93.73 85.14c-3.37 5.23-13.08 16.2-26.75 16.2-15.56 0-27.56-14.56-27.56-14.56s-3.09-1.73-5.1-1.62c13.24 20.42 32.88 18.4 32.88 18.4 15.97-.61 25.07-11.42 29.22-18.18-.9-.13-1.82-.23-2.69-.24" style="fill:#181716"/><path d="M23.77 88.49c.08.6.25 1.71.48 2.67.09.38.5.54.8.33.77-.54 2.4-1.44 5.5-2.16 3.51-.83 7.35-.71 9.13-.59.43.03.7-.47.47-.86l-1.16-1.99a.5.5 0 0 0-.14-.16c-.56-.39-3.9-2.12-14.73 2.16a.59.59 0 0 0-.35.61Zm84.37 1.45c-.1.72-.32 2.23-.6 3.36-.1.4-.58.55-.89.29-.81-.68-2.46-1.86-5.34-3.16-3.74-1.69-6.59-1.95-8.03-1.94-.44 0-.71-.48-.47-.86l1.16-1.82c.08-.12.19-.21.33-.24.77-.19 3.8-.34 13.51 3.78.23.1.38.34.34.59Z" style="fill:#181716"/><path d="M120.37 73.38a56.4 56.4 0 0 0-5.4-14.89l-6.68 3.42-.26.13c6.05 11.24 7.43 24.32 4.14 36.4l8.57 2.77c1.91-9.1 1.76-18.71-.36-27.84Z" style="fill:#70963e"/><path d="M54.35 30.16c-9.64 2.52-23.57 8.72-31.95 23.9l3.04 2.02c7.14-9.54 17.64-16.42 29.76-18.85l-.84-7.07Z" style="fill:#ffce00"/><path d="M110.96 102.26a49.2 49.2 0 0 1-11.5 18.07c-1.04 1.04 7.52 7.7 8 7.18 5.92-6.37 10-14.1 12.32-22.4z" style="fill:#1695d2"/><path d="M105.23 45.28c-.09-.09-.16-.18-.25-.26 0 0-.06-.06-.16-.14-.81-.8-1.65-1.58-2.51-2.33l-4.46 6.48c.54.49 1.08 1 1.6 1.52 2.5 2.5 4.67 5.21 6.53 8.06l4.96-2.54 2.02-1.04c-2.22-3.53-4.82-6.8-7.74-9.75Z" style="fill:#97c33a"/></g></svg>