<?xml version="1.0" encoding="UTF-8"?>
<svg id="Ebene_1" data-name="Ebene 1" xmlns="http://www.w3.org/2000/svg" viewBox="0 0 130.67 136">
  <rect x="7.14" y="21.92" width="84.93" height="89.78" rx="8" ry="8" transform="translate(-7.09 5.9) rotate(-6.35)" style="fill: #fff; stroke: #181716; stroke-miterlimit: 10; stroke-width: 3px;"/>
  <rect x="92.4" y="16.57" width="28.25" height="26.42" rx="8" ry="8" transform="translate(-2.64 11.97) rotate(-6.35)" style="fill: #fff; stroke: #181716; stroke-miterlimit: 10; stroke-width: 2px;"/>
  <rect x="96.4" y="47.09" width="28.25" height="26.42" rx="8" ry="8" transform="translate(-5.99 12.6) rotate(-6.35)" style="fill: #fff; stroke: #181716; stroke-miterlimit: 10; stroke-width: 2px;"/>
  <rect x="98.96" y="77.57" width="28.25" height="26.42" rx="8" ry="8" transform="translate(-9.35 13.07) rotate(-6.35)" style="fill: #fff; stroke: #181716; stroke-miterlimit: 10; stroke-width: 2px;"/>
  <circle cx="32.25" cy="56.24" r="4.89" style="fill: #e51d21;"/>
  <circle cx="54.55" cy="40.59" r="6.89" style="fill: #ffce00;"/>
  <circle cx="69.24" cy="64.98" r="7.44" style="fill: #97c33a;"/>
  <circle cx="100.08" cy="36.84" r="12.33" style="fill: #1695d2;"/>
  <path d="M114.17,34.22c-1.26-6.79-7.18-11.72-14.08-11.72h0c-.88,0-1.76.08-2.63.24-3.76.7-7.03,2.82-9.2,5.98-2.17,3.16-2.98,6.97-2.28,10.73.46,2.46,1.53,4.67,3.04,6.5l-13.87,11.68c-1.63-1.31-3.69-2.08-5.9-2.08h0c-.58,0-1.16.05-1.73.16-.64.12-1.27.31-1.86.55l-5.73-8.59c.74-.57,1.4-1.25,1.94-2.04,1.34-1.96,1.85-4.32,1.41-6.65-.78-4.21-4.45-7.27-8.73-7.27-.54,0-1.09.05-1.63.15-4.82.89-8.01,5.54-7.12,10.36.13.69.34,1.34.61,1.95l-9.4,7.14c-1.25-1.2-2.92-1.95-4.76-1.95h0c-.42,0-.85.04-1.26.12-1.81.34-3.38,1.36-4.42,2.87-1.04,1.52-1.43,3.35-1.09,5.15.61,3.26,3.45,5.63,6.76,5.63.42,0,.85-.04,1.26-.12,1.81-.34,3.38-1.36,4.42-2.87,1.04-1.52,1.43-3.35,1.09-5.15-.08-.41-.19-.8-.33-1.18l9.38-7.13c1.63,1.74,3.94,2.81,6.46,2.81.54,0,1.09-.05,1.63-.15.37-.07.73-.17,1.08-.28l5.86,8.78c-.61.53-1.17,1.13-1.64,1.82-1.43,2.08-1.96,4.59-1.5,7.07.83,4.47,4.73,7.72,9.27,7.72.58,0,1.16-.05,1.73-.16,2.48-.46,4.63-1.86,6.06-3.94s1.96-4.59,1.5-7.07c-.23-1.25-.71-2.39-1.36-3.4l14.01-11.8c2.46,1.95,5.56,3.11,8.89,3.11.88,0,1.76-.08,2.63-.24,3.76-.7,7.03-2.82,9.2-5.98,2.17-3.16,2.98-6.97,2.28-10.73ZM33.14,61.05c-.3.06-.6.08-.9.08-2.31,0-4.36-1.64-4.8-3.99-.49-2.65,1.26-5.2,3.91-5.69.3-.06.6-.08.9-.08,1.26,0,2.42.5,3.31,1.32l1.01,1.33c.22.42.39.86.48,1.35.49,2.65-1.26,5.2-3.91,5.69ZM55.8,47.36c-.42.08-.85.12-1.26.12-3.25,0-6.15-2.32-6.76-5.63-.69-3.74,1.78-7.33,5.51-8.03.42-.08.85-.12,1.26-.12,3.25,0,6.15,2.32,6.76,5.63.69,3.74-1.78,7.33-5.51,8.03ZM70.6,72.3c-.46.09-.92.13-1.37.13-3.52,0-6.64-2.5-7.31-6.08-.49-2.62.47-5.16,2.29-6.84h0s1.9-1.27,1.9-1.27c.55-.25,1.14-.45,1.76-.57.46-.09.92-.13,1.37-.13,1.86,0,3.61.71,4.95,1.9l1.36,1.62c.47.76.82,1.62.99,2.56.75,4.04-1.92,7.92-5.96,8.67ZM102.33,48.96c-.76.14-1.52.21-2.26.21-3.29,0-6.38-1.32-8.64-3.54l-.84-1-.04.03c-1.28-1.56-2.21-3.45-2.6-5.57-1.24-6.7,3.18-13.13,9.88-14.38.76-.14,1.52-.21,2.26-.21,5.83,0,11.01,4.15,12.11,10.09,1.24,6.7-3.18,13.13-9.88,14.38Z" style="fill: #181716;"/>
  <path d="M15.32,71.87l3.88,30.87s.94,5.71,6.67,4.99c4.96-.62,4.7-.59,41.01-5.15" style="fill: none; stroke: #181716; stroke-linecap: round; stroke-miterlimit: 10; stroke-width: 2px;"/>
  <rect x="25.96" y="77.04" width="7.11" height="30.22" rx="1" ry="1" transform="translate(-11.25 4.4) rotate(-7.16)" style="fill: #e7e7e7; stroke: #181716; stroke-miterlimit: 10;"/>
  <rect x="39.16" y="87.32" width="7.11" height="18.33" rx="1" ry="1" transform="translate(-11.69 6.07) rotate(-7.16)" style="fill: #e7e7e7; stroke: #181716; stroke-miterlimit: 10;"/>
  <rect x="51.6" y="80.08" width="7" height="24" rx="1" ry="1" transform="translate(-11.04 7.58) rotate(-7.16)" style="fill: #e7e7e7; stroke: #181716; stroke-miterlimit: 10;"/>
  <path d="M11.66,95.92l-2.12-50.63c-.06-1.96.36-3.91,1.26-5.65,1.57-3.03,4.98-7.05,12.28-8.94,12.55-3.24,27.26-7.61,27.26-7.61l-31.48,3.47c-.15.02-8.47.99-8.62,1.01-1.83.32-5.97,2-5.35,7.85,1.99,18.61,6.77,60.5,6.77,60.5Z" style="fill: #e7e7e7; opacity: .5;"/>
  <g>
    <circle cx="96.78" cy="100.89" r="18.78" style="fill: #fff;"/>
    <circle cx="97.78" cy="100.89" r="8.8" style="fill: #181716;"/>
    <circle cx="100.45" cy="95.11" r="3.11" style="fill: #fff;"/>
    <g>
      <path d="M112.79,130.78c-.65,0-1.26-.32-1.62-.86l-4.74-7.13c-2.93,1.27-6.04,1.91-9.27,1.91-12.87,0-23.34-10.47-23.34-23.34s10.47-23.34,23.34-23.34,23.34,10.47,23.34,23.34c0,6.59-2.77,12.82-7.62,17.25l4.69,7.05c.29.43.39.95.29,1.46s-.4.95-.83,1.23l-3.17,2.11c-.32.21-.69.32-1.07.32h0ZM97.16,85.66c-8.65,0-15.69,7.04-15.69,15.69s7.04,15.69,15.69,15.69,15.7-7.04,15.7-15.69-7.04-15.69-15.7-15.69Z" style="fill: #e51d21;"/>
      <path d="M97.16,79.01c12.34,0,22.34,10,22.34,22.34,0,6.85-3.09,12.98-7.94,17.07l5.17,7.78c.29.43.17,1.02-.26,1.31l-3.17,2.11c-.16.11-.34.16-.52.16-.31,0-.61-.15-.79-.42l-5.21-7.84c-2.92,1.4-6.18,2.18-9.63,2.18-12.34,0-22.34-10-22.34-22.34s10-22.34,22.34-22.34M97.16,118.05c9.21,0,16.69-7.49,16.69-16.69s-7.49-16.69-16.69-16.69-16.69,7.49-16.69,16.69,7.49,16.69,16.69,16.69M97.16,77.01c-13.42,0-24.34,10.92-24.34,24.34s10.92,24.34,24.34,24.34c3.08,0,6.07-.56,8.89-1.68l4.29,6.44c.55.82,1.46,1.31,2.45,1.31.58,0,1.14-.17,1.63-.49l3.17-2.11c1.35-.9,1.72-2.73.82-4.08l-4.22-6.35c4.67-4.57,7.32-10.82,7.32-17.4,0-13.42-10.92-24.34-24.34-24.34h0ZM97.16,116.05c-8.1,0-14.69-6.59-14.69-14.69s6.59-14.69,14.69-14.69,14.69,6.59,14.69,14.69-6.59,14.69-14.69,14.69h0Z" style="fill: #181716;"/>
    </g>
  </g>
</svg>