<?xml version="1.0" standalone="no"?>
<!DOCTYPE svg PUBLIC "-//W3C//DTD SVG 20010904//EN"
 "http://www.w3.org/TR/2001/REC-SVG-20010904/DTD/svg10.dtd">
<svg version="1.0" xmlns="http://www.w3.org/2000/svg"
 width="700.000000pt" height="700.000000pt" viewBox="0 0 700.000000 700.000000"
 preserveAspectRatio="xMidYMid meet">
<metadata>
Created by potrace 1.11, written by Peter Selinger 2001-2013
</metadata>
<g transform="translate(0.000000,700.000000) scale(0.100000,-0.100000)"
fill="#000000" stroke="none">
<path d="M2590 6413 c-111 -18 -257 -100 -341 -190 -171 -183 -266 -438 -276
-743 -4 -134 5 -243 33 -370 4 -22 -2 -29 -48 -54 -251 -139 -505 -376 -629
-588 -51 -87 -94 -190 -121 -293 -30 -108 -32 -353 -5 -463 58 -240 215 -486
423 -665 l84 -72 -113 -6 c-173 -10 -285 -47 -356 -118 -120 -120 -116 -345
12 -596 75 -149 226 -338 375 -471 53 -47 76 -74 65 -74 -72 -1 -334 -23 -408
-35 -269 -43 -486 -139 -596 -263 -54 -61 -99 -151 -106 -213 l-6 -49 868 0
868 0 -60 -63 c-74 -76 -103 -131 -103 -192 0 -56 25 -85 73 -85 45 0 130 26
200 61 32 17 62 27 66 25 5 -3 11 -24 15 -45 20 -128 90 -271 132 -271 32 0
85 65 133 163 27 56 53 115 57 130 5 20 11 27 23 24 9 -3 54 -17 101 -31 175
-54 250 -45 250 32 0 47 -35 122 -89 189 -22 29 -41 55 -41 58 0 3 183 5 406
5 l405 0 -40 -47 c-54 -65 -101 -158 -101 -199 0 -21 8 -42 21 -55 19 -19 29
-21 83 -16 51 5 191 40 249 63 11 4 19 -6 27 -33 23 -71 112 -233 142 -258 38
-32 51 -31 83 3 29 31 58 102 86 211 10 41 21 76 23 78 2 3 26 -7 53 -21 70
-35 166 -66 207 -66 119 0 106 148 -24 281 l-58 59 895 0 896 0 -5 44 c-3 24
-17 69 -32 101 -51 113 -135 191 -281 263 -179 89 -356 125 -717 148 l-97 6
82 73 c418 374 594 862 384 1066 -75 73 -182 108 -354 118 l-113 6 87 75 c204
176 350 402 415 643 32 118 32 365 0 482 -57 211 -152 374 -321 549 -129 132
-270 242 -426 331 -27 15 -51 29 -53 31 -2 1 5 40 15 86 25 117 25 409 0 526
-84 381 -301 649 -574 707 -86 18 -130 18 -216 0 -318 -67 -567 -434 -594
-877 l-6 -97 -118 2 -117 2 -7 80 c-25 317 -133 570 -316 739 -136 126 -312
185 -469 159z m151 -703 c177 -33 332 -199 391 -417 29 -109 29 -287 0 -396
-61 -224 -215 -385 -403 -420 -175 -32 -370 86 -466 283 -56 116 -75 201 -75
335 0 199 62 366 182 485 113 113 234 156 371 130z m1732 -22 c327 -127 448
-653 229 -990 -172 -262 -462 -300 -672 -89 -124 125 -183 281 -183 486 0 205
59 361 183 486 130 131 285 168 443 107z m-2058 -3084 c204 -70 451 -125 705
-156 141 -17 622 -17 760 0 266 34 519 90 719 161 l111 39 0 -98 c0 -546 -400
-1015 -970 -1137 -117 -25 -371 -24 -488 1 -254 54 -447 159 -628 340 -108
109 -175 204 -236 332 -64 138 -108 341 -108 508 0 51 2 57 18 51 9 -4 62 -23
117 -41z"/>
<path d="M2560 5434 c-95 -35 -175 -109 -217 -202 -97 -210 -13 -458 185 -550
47 -22 71 -27 142 -27 76 0 92 3 151 32 292 144 290 579 -3 729 -68 35 -188
43 -258 18z m111 -67 c75 -50 103 -179 56 -262 -48 -86 -152 -113 -230 -60
-105 72 -104 251 2 322 47 32 125 32 172 0z m227 -180 c17 -13 15 -57 -5 -79
-46 -51 -123 20 -80 74 21 28 53 29 85 5z"/>
<path d="M4213 5432 c-160 -57 -255 -201 -254 -384 1 -314 331 -500 573 -323
194 143 215 449 42 622 -91 91 -244 127 -361 85z m119 -67 c103 -70 103 -242
0 -319 -35 -27 -119 -33 -160 -12 -42 22 -78 72 -92 128 -21 82 19 175 95 216
37 21 117 14 157 -13z m212 -176 c14 -11 26 -29 26 -40 0 -25 -35 -59 -60 -59
-24 0 -60 34 -60 55 0 17 43 65 58 65 5 0 21 -9 36 -21z"/>
<path d="M3410 2283 c-129 -45 -206 -151 -204 -283 1 -116 66 -220 170 -271
68 -33 177 -33 252 0 28 13 52 27 52 31 0 4 -26 18 -57 31 -160 63 -234 115
-249 175 -11 42 1 129 22 157 35 49 115 80 223 86 l96 6 -42 28 c-81 55 -178
70 -263 40z"/>
<path d="M3553 2075 c-31 -22 -31 -70 1 -98 24 -21 226 -110 234 -102 7 7 22
80 22 111 0 28 -7 37 -52 65 -43 28 -64 34 -117 37 -49 2 -72 -1 -88 -13z"/>
</g>
</svg>
