<svg xmlns="http://www.w3.org/2000/svg" width="933.333" height="933.333" viewBox="0 0 700 700"><path d="M300.1 50.6c-18.4 4.9-37.5 24.4-42.7 43.8-1.5 5.4-2.2 10.5-2.8 19.6-.2 3-.5 5.9-.5 6.4-.1.5-1.1-.4-2.3-2-7.6-9.8-20-18.6-30.2-21.4-13.7-3.6-24.5-1.3-49 10.4-9.3 4.5-12.6 6.7-18.3 12.3-10.2 10.1-26.3 34.3-35.5 53.3-3.2 6.8-11.4 30.2-13.6 39-2.1 8.8 2.3 17.7 11.1 22.1 3.6 1.9 5 2 12.6 1.3 13.1-1.2 15.1-1 18.1 1.6 2 1.7 2.2 2.6 1.6 6.6-.3 2.6-3.3 11-6.5 18.8-5.6 13.4-7.7 18.9-8.6 23.2-.2 1-1.3 5.7-2.4 10.4-1.9 8-2.9 13.9-3 18.5-.1 1.4-2.3 3.5-6.6 6.4-8.3 5.4-28.8 25.6-38.6 38.1-26.6 33.5-42 60.8-50.3 89-1.3 4.7-3.6 11.9-5.1 16-1.4 4.1-3 9.5-3.6 12s-1.3 5.4-1.5 6.5c-2.3 10.1-3.9 21.9-3.9 29 .1 6.4 2.7 13.2 6.8 17.7 1.2 1.3 3.8 4.2 5.7 6.4 3.7 4.1 11.1 10.4 14.5 12.2 1.2.6 7.8 5.4 14.8 10.6C87.6 578.9 106 590.3 121 596c6.1 2.3 24.1 10.7 39.8 18.5 46.7 23.3 50.5 24.8 73.2 27.9 1.9.3 5.2.8 7.3 1.1 2 .3 5.2.7 7 1 4 .5 30.9 3.4 38.7 4.1 28.1 2.4 86.2 2.4 110.5-.1 1.7-.1 6.2-.6 10-.9 3.9-.4 8.1-.9 9.5-1.1 2.4-.3 6.7-.9 16.8-2.1 2.6-.3 7.2-.9 10.2-1.4s7.3-1.2 9.5-1.5c7.3-1.1 32.7-7.6 39.4-10.1 8.3-3.1 27.1-13 42.1-22.1 6.3-3.8 12.6-7.6 13.9-8.4 1.4-.8 13.3-8.5 26.4-17.2 13.2-8.8 25.8-16.8 28.1-18 3.1-1.6 26.9-18 33.1-22.9 8.7-6.8 21.5-18.1 27.2-23.9 15.2-15.7 17.8-20.4 17.7-33.4-.1-7.8-.6-10.6-4.1-21-6.8-20.3-20.7-52.8-25.5-59.8-1.1-1.5-1.7-2.7-1.4-2.7s-1.5-3.5-4-7.8c-2.5-4.2-4.9-8.4-5.4-9.2-3.1-5.4-9.3-14.9-15.4-23.5-21.2-30.2-38.5-48.6-59.6-63.4-11.4-8-11.3-7.9-22-13.4-5.7-2.9-8.6-4.9-8.8-6.2-.9-5.9-5.8-19.3-10.5-28.8l-5.3-10.7h4.4c5.3 0 10.8-2.4 14.4-6.4 4.4-4.8 6-11.3 6-24 0-32.4-17.3-71.2-36.3-81.5-8-4.3-33.6-4.9-48.4-1.1-15.9 4-32.2 14.6-38.3 24.8l-2 3.3-3.6-3.1c-1.9-1.8-5.8-4-8.5-5-8.8-3.4-24.8-1.1-34.7 5.1l-3.4 2.1-.1-2.1c-.1-1.2-.2-2.4-.3-2.9-.1-.4-.6-3.9-1.1-7.7-.4-3.9-.9-7.7-1-8.5-2.4-17-7.3-38.3-10.7-46-10.6-24.2-24.1-35.6-43.3-36.5-3.9-.2-9.4.3-12.4 1.1"/></svg>