<?xml version="1.0" standalone="no"?>
<!DOCTYPE svg PUBLIC "-//W3C//DTD SVG 20010904//EN"
 "http://www.w3.org/TR/2001/REC-SVG-20010904/DTD/svg10.dtd">
<svg version="1.0" xmlns="http://www.w3.org/2000/svg"
 width="700.000000pt" height="700.000000pt" viewBox="0 0 700.000000 700.000000"
 preserveAspectRatio="xMidYMid meet">
<metadata>
Created by potrace 1.14, written by Peter Selinger 2001-2017
</metadata>
<g transform="translate(0.000000,700.000000) scale(0.100000,-0.100000)"
fill="#000000" stroke="none">
<path d="M3001 6494 c-184 -49 -375 -244 -427 -438 -15 -54 -22 -105 -28 -196
-2 -30 -5 -59 -5 -64 -1 -5 -11 4 -23 20 -76 98 -200 186 -302 214 -137 36
-245 13 -490 -104 -93 -45 -126 -67 -183 -123 -102 -101 -263 -343 -355 -533
-32 -68 -114 -302 -136 -390 -21 -88 23 -177 111 -221 36 -19 50 -20 126 -13
131 12 151 10 181 -16 20 -17 22 -26 16 -66 -3 -26 -33 -110 -65 -188 -56
-134 -77 -189 -86 -232 -2 -10 -13 -57 -24 -104 -19 -80 -29 -139 -30 -185 -1
-14 -23 -35 -66 -64 -83 -54 -288 -256 -386 -381 -266 -335 -420 -608 -503
-890 -13 -47 -36 -119 -51 -160 -14 -41 -30 -95 -36 -120 -6 -25 -13 -54 -15
-65 -23 -101 -39 -219 -39 -290 1 -64 27 -132 68 -177 12 -13 38 -42 57 -64
37 -41 111 -104 145 -122 12 -6 78 -54 148 -106 273 -205 457 -319 607 -376
61 -23 241 -107 398 -185 467 -233 505 -248 732 -279 19 -3 52 -8 73 -11 20
-3 52 -7 70 -10 40 -5 309 -34 387 -41 281 -24 862 -24 1105 1 17 1 62 6 100
9 39 4 81 9 95 11 24 3 67 9 168 21 26 3 72 9 102 14 30 5 73 12 95 15 73 11
327 76 394 101 83 31 271 130 421 221 63 38 126 76 139 84 14 8 133 85 264
172 132 88 258 168 281 180 31 16 269 180 331 229 87 68 215 181 272 239 152
157 178 204 177 334 -1 78 -6 106 -41 210 -68 203 -207 528 -255 598 -11 15
-17 27 -14 27 3 0 -15 35 -40 78 -25 42 -49 84 -54 92 -31 54 -93 149 -154
235 -212 302 -385 486 -596 634 -114 80 -113 79 -220 134 -57 29 -86 49 -88
62 -9 59 -58 193 -105 288 l-53 107 44 0 c53 0 108 24 144 64 44 48 60 113 60
240 0 324 -173 712 -363 815 -80 43 -336 49 -484 11 -159 -40 -322 -146 -383
-248 l-20 -33 -36 31 c-19 18 -58 40 -85 50 -88 34 -248 11 -347 -51 l-34 -21
-1 21 c-1 12 -2 24 -3 29 -1 4 -6 39 -11 77 -4 39 -9 77 -10 85 -24 170 -73
383 -107 460 -106 242 -241 356 -433 365 -39 2 -94 -3 -124 -11z"/>
</g>
</svg>
