<?xml version="1.0" encoding="UTF-8"?><svg id="c" xmlns="http://www.w3.org/2000/svg" viewBox="0 0 500 500"><path d="M486.4,340.5c-.36-1.79-.85-3.4-1.28-4.74-9.08-28.41-21.91-54.49-38.16-77.5-11.42-16.18-24.47-32.86-42.51-45.28l-.84-.58c-6.41-4.42-13.03-8.98-21.11-11.89-1.03-7.95-4.18-14.76-7-20.85l-.91-1.98c-1.19-2.6-2.55-5.05-4.06-7.33,1.15,.3,2.36,.46,3.6,.46,.53,0,1.07-.03,1.62-.09,2.81-.3,9.62-1.97,12.14-10.82,.93-3.26,.88-6.24,.84-8.41,0-.42-.02-.84-.01-1.27,.7-6.64-.66-12.55-1.86-17.77-.13-.58-.27-1.16-.4-1.74-2.93-13.09-7.76-23.59-14.74-32.09-2.83-3.44-8.1-9.85-17.47-10.08-1.46-.04-2.92-.11-4.38-.18-5.17-.25-11.02-.54-17.17,.65-9.92,1.92-22.44,5.68-31.29,17.84-.78,1.07-1.47,2.18-2.1,3.31-1.48-1.77-3.2-3.26-5.17-4.43-5.54-3.29-12.27-3.74-20.01-1.34-3.75,1.16-7.26,2.81-10.52,4.92-1.19-12.63-2.98-23.95-5.48-34.73-1.72-7.42-4.48-17.03-10.68-25.59-5.48-7.57-12.76-12.24-21.04-13.5-8.44-1.29-17.3,1.16-24.97,6.88-11.02,8.23-17.84,20.05-19.2,33.27-.4,3.88-.6,7.63-.63,11.27-2.81-4.08-6.5-7.91-11.09-11.51-9.87-7.74-21.5-9.38-33.62-4.73-2.13,.82-4.09,1.72-5.99,2.59-1.84,.85-3.58,1.64-5.23,2.24-8.59,3.13-15.98,8.95-21.97,17.27-7.97,11.07-16.1,23.22-21.61,37.01-1.49,3.73-2.59,7.4-3.66,10.94-.87,2.88-1.69,5.6-2.65,8.17-2.69,7.14,0,14.58,6.53,18.09,2.1,1.13,4.33,1.67,6.52,1.67,1.05,0,2.08-.13,3.1-.37,17.51-3.33,16.09,3.91,11.58,14.47-.45,1.01-.9,2.03-1.35,3.08-2.59,5.81-5.61,12.34-6.81,18.56,.02-.03,.05-.07,.07-.11-1.96,6.66-3.61,14.17-4.2,22.14-4.43,2.16-7.84,5.13-10.91,7.8l-1.16,1.01c-11.19,9.64-20.19,21.05-28.24,31.94-15.07,20.37-24.43,39.19-29.45,59.23-.06,.26-.34,.94-.43,1.17-4.66,11.57-6.5,23.39-7.97,34.5-.73,5.46,.66,10.51,4,14.61l.15,.19c1.55,1.9,3.16,3.87,4.84,5.82,3.35,3.89,7.2,6.39,10.59,8.6,1.52,.99,2.95,1.92,4.14,2.86,12.82,10.09,26.53,19.54,40.75,28.07l.82,.49,16.46,6.18c12.99,6.68,23.86,12.14,34.16,17.15l.14,.07c1.44,.67,2.88,1.37,4.35,2.07,5.99,2.87,12.18,5.84,18.74,7.97l.31,.1c2.93,.85,6.47,1.38,9.58,1.85,1.19,.18,2.32,.35,3.28,.52l.28,.05c27.25,4.12,53.88,6.19,79.63,6.19,17.53,0,34.67-.96,51.31-2.88,18.43-2.15,36.44-4.56,54.23-10.43l.39-.14c6.42-2.4,12.49-5.62,17.68-8.45l.08-.05c17.57-9.81,35.68-21.26,56.95-36.01l8.51-4.67,.46-.32c5.5-3.84,11.99-8.42,18.5-13.3,12-8.99,20.98-17.34,28.24-26.27,7.37-9.06,5.41-18.67,4.77-21.84Z" style="fill:#fff;"/><path d="M288.77,239.02c-.08,10.15,1.44,19.98,4.7,29.63,2.49,7.38,7.26,12.22,14.27,15.1,7.47,3.07,15.08,5.76,22.86,7.98,5.23,1.5,10.04,.42,14.29-2.68,4.98-3.62,9.3-7.95,11.99-13.61,4.49-9.48,7.47-19.36,8.31-29.91,.47-5.9,.69-11.82,1.24-17.71,1.36-14.54-.24-28.61-6.23-42.05-1.24-2.78-1.93-5.93-3.67-8.33-5.99-8.25-21.23-15.39-32.1-11.62-5.87,2.04-11.12,5.14-15.12,9.92-5.32,6.37-9.99,13.26-12.7,21.14-4.69,13.63-7.86,27.6-7.85,42.13Z" style="fill:#fff;"/><path d="M210.88,224.03c.63-13.81-1.88-27.86-6.64-41.59-2.68-7.72-6.46-14.93-11.31-21.36-7.51-9.95-18.8-11.45-30.13-10.82-10.54,.59-18.84,6.53-25.91,14.04-7.49,7.96-12.52,17.51-16.95,27.38-8.17,18.21-12.52,37.01-9.06,57.13,2,11.67,5.05,22.9,12.5,32.31,6.56,8.28,14.22,15.43,25.16,17.33,6.89,1.19,13.89,2.01,20.92,1.43,6.72-.56,13.11-2.07,18.11-7.17,2.31-2.36,3.88-5.16,5.55-7.92,11.13-18.46,18.93-37.92,17.77-60.76Z" style="fill:#fff;"/><path d="M470.05,341.27c-.38-1.26-.82-2.45-1.31-3.77l-.69-1.84c-4.22-11.2-8.59-22.78-14.01-33.79-.08-.17-.15-.36-.22-.54-.39-1.05-1.21-3.24-3.84-3.87l-.39-.09h-.4c-1.92,.06-3.15,1.05-3.89,1.64l-.26,.21c-8.9,6.8-19.27,9.85-30.79,9.07-3.98-.27-6.87-1.49-8.61-3.62-1.76-2.16-2.37-5.29-1.82-9.32,.14-1.04,.36-2.38,.8-3.5,1.75-4.44,1.08-8.69-2.05-12.98-1.7-2.34-3.46-4.75-4.8-7.28-4.52-8.5-3.81-14.04,2.7-21.18,2.63-2.89,5.57-5.89,9.85-8.07l4.23-2.15-3.76-2.9c-2.61-2.01-5.18-4.09-7.66-6.11-8.64-7.01-16.8-13.64-27.17-17.86l-2.67-1.09-1.19,2.62c-.13,.27-.24,.5-.35,.69-.29,.54-.65,1.22-.74,2.11-.18,1.77-.36,3.53-.55,5.3-.57,5.48-1.16,11.15-1.58,16.75-.93,12.41-4.03,24.67-9.19,36.44-2.6,5.94-6.52,10.91-11.96,15.21-5.7,4.49-11.64,5.86-18.12,4.18-7.7-1.99-15.91-4.28-23.75-7.49-7.87-3.22-12.51-7.19-15.05-12.9-6.45-14.47-8.58-30.43-6.34-47.43,1.3-9.82,4.09-20.12,8.53-31.48,.07-.17,.15-.34,.23-.51,.54-1.14,1.79-3.82-.35-6.54l-.54-.68-.82-.29c-4.88-1.73-8.77-.26-11.9,4.51-3.22,4.9-7.19,8.54-11.81,10.8-3.35,1.65-6.25,3.71-8.64,5.51-5.19,3.91-11.29,7.22-18.65,10.12-3.94,1.55-8.24,1.09-10.94-1.17-2.33-1.96-3.16-4.99-2.39-8.78,.7-3.47,.55-7.07,.34-10.46-.19-2.99-1.24-5.15-3.13-6.43-2.04-1.38-4.8-1.51-8.22-.39l-1.27,.42-.54,1.22c-.85,1.92-.49,3.65-.22,4.91,.04,.18,.08,.36,.11,.54,1.92,10.42,2.29,21.33,1.1,32.43-2.01,18.81-8.59,37.54-20.71,58.94-3.68,6.5-8.61,10.85-14.64,12.93-9.79,3.38-20.82,4.1-33.73,2.21-12.59-1.85-21.13-10.59-27.83-18.89-7.79-9.66-12.1-21.87-13.58-38.42-.03-.39-.03-.84-.03-1.33,.01-1.86,.03-4.4-2.06-6.59l-1.38-1.45-1.87,.72c-8.33,3.22-30,26.61-34.61,37.35l-1.18,2.74,2.74,1.19c3.07,1.34,4.88,4.02,5.54,8.21,.83,5.25,1.22,11.33-2.17,16.72-3.48,5.53-4.86,11.38-4.1,17.39,.08,.59,.03,1.3-.02,2.1-.38,5.2-1.22,5.97-6.46,5.8l-.92-.03c-3.15-.11-6.71-.24-10.12,1.64-8.32,4.59-17.88,11.67-18.02,25.82v.15c0,.54-.01,1.04-.08,1.39-1.04,4.76,1.25,8.04,3.36,10.36,3.14,3.46,6.83,6,10.41,8.47,1.69,1.16,3.28,2.26,4.82,3.45,27.09,20.89,55.9,38.37,85.65,51.94,3.6,1.64,7.24,3.49,11.13,5.64l.4,.18c3.44,1.3,6.21,2.34,8,3.02,13.66,5.17,42.72,7.19,103.65,7.19,66.82,0,103.93-16.92,113.71-22.11,1.29-.68,2.98-1.59,4.97-2.66l1.51-1.08c8.95-6.6,18.2-13.43,27.23-20.26,5.88-4.45,11.93-8.88,17.78-13.17,14.13-10.36,28.75-21.07,42.21-32.9l.25-.22c7.1-6.24,7.51-7.63,4.85-16.55Z" style="fill:#2ea0da;"/><path d="M177.93,109.15c0,.72,.03,1.44,0,2.16-.26,5.34-2.58,7.52-7.95,6.89-4.62-.55-9.3-1.14-13.76-2.42-13.59-3.88-25.04,.62-35.71,8.52-3.75,2.78-7.14,6.05-10.97,8.69-6.73,4.64-11.4,10.83-14.82,18.12-.69,1.46-1.28,2.98-2.11,4.36-1.44,2.4-3.5,3.24-5.34,2.26-2.14-1.15-2.4-3.14-1.66-5.12,2.34-6.22,3.77-12.73,6.24-18.92,5.04-12.63,12.5-23.83,20.37-34.77,4.36-6.06,9.82-10.9,17.04-13.53,3.87-1.41,7.52-3.42,11.37-4.89,8.33-3.19,16.2-2.44,23.36,3.18,8.28,6.5,13.95,14.43,13.92,25.47Z"/><path d="M378.21,149.53c-.08,2.5,.26,5.04-.44,7.5-.46,1.63-1.26,3.04-3.16,3.25-2.14,.23-3.47-.99-3.99-2.87-.94-3.46-1.92-6.95-2.42-10.49-1.03-7.3-5.09-12.99-9.5-18.45-2.72-3.36-6.54-4.36-10.72-2.89-2.36,.83-4.64,1.92-6.91,3-6.66,3.18-13.44,5.98-20.71,7.5-2.96,.62-5.78,.23-8.44-.86-3.98-1.63-6.39-4.68-6.35-9.13,.05-4.77,1.44-9.09,4.32-13.05,6.17-8.48,14.99-11.81,24.78-13.7,6.46-1.25,12.87-.44,19.3-.28,4.41,.11,7.09,3.19,9.6,6.25,6.66,8.1,10.35,17.63,12.6,27.71,1.21,5.4,2.71,10.84,2.02,16.52Z"/><path d="M176.52,356.39c1.57-2.33,3.31-2.59,5.11-1.88,5.66,2.2,11.68,1.94,17.53,2.42,15.56,1.28,31.2,1.77,46.8,1.17,23.71-.9,46.59-5.74,68.13-16.01,7.94-3.78,16.18-6.92,23.85-11.26,.77-.44,1.61-.82,2.47-1.02,1.55-.37,2.84,.19,3.73,1.51,.78,1.16,.74,2.42,.03,3.56-.56,.9-1.25,1.79-2.07,2.43-1.26,.99-2.59,2.08-4.07,2.58-5.54,1.86-7.45,5.44-7.42,11.33,.04,6.73-3.11,12.83-6.44,18.63-.7,1.21-1.78,2.27-2.89,3.15-2.46,1.96-4.59,1.69-6.43-.92-1.02-1.44-1.75-3.13-2.38-4.8-1.51-4.05-3.45-7.87-5.59-11.41-1.71-.79-2.98,.05-4.33,.47-10.46,3.26-21.1,5.8-31.87,7.79-9.91,1.83-19.93,2.47-30,2.31-6.82-.11-13.64-.13-20.47-.16-5.31-.02-5.57,.04-7.35,5.15-1.95,5.58-4.08,11.15-3.85,17.23,.03,.71-.07,1.45-.27,2.12-.44,1.46-1.29,2.58-2.95,2.74-1.63,.15-2.9-.62-3.44-2.07-3.09-8.22-9.22-15.01-11.19-23.76-.66-2.92-2.51-4.39-5.49-5.13-3.63-.89-6.95-2.63-9.17-6.18Zm21.06,8.28c1.12,4.93,2.7,8.85,6.15,12.41,1.75-4.02,3.28-7.53,5-11.47-3.75-.32-7.04-.59-11.15-.94Zm116.47-12.48c1.82,3.3,3.45,6.17,5.93,9.11,2.87-4.45,4.24-8.78,4-14.26-3.51,1.68-6.67,2.81-9.93,5.16Z"/><path d="M257.57,441.8c-7.84,.72-15.95-1.98-24.17-3.95-2.14-.51-4.23-1.34-5.93-2.84-1.31-1.16-2.25-2.52-1.5-4.36,.74-1.81,2.29-2.37,4.07-2.09,5.62,.91,11.34,1.25,16.87,2.73,4.63,1.24,9.33,2.07,14.13,2.22,7.91,.24,15.2-2.4,22.52-4.89,1.39-.47,2.73-1.17,4.15-1.48,2.01-.44,3.66,.38,4.64,2.18,1.04,1.9,.33,3.57-1.08,4.99-1.19,1.21-2.71,1.96-4.3,2.42-9.35,2.73-18.64,5.9-29.42,5.08Z"/><path d="M438.89,315.23c-5.82-.06-10.41,5.74-10.52,13.29-.08,5.36,4.24,9.54,9.98,9.66,6.39,.13,11.96-5.13,12.01-11.34,.04-5.36-6.07-11.55-11.47-11.61Z"/><path d="M257.27,234.72c-2.11,.14-4.4-.34-6.6-1.13-2.47-.89-4.71-2.33-4.81-5.21-.1-2.9,2.05-4.42,4.49-5.45,.66-.28,1.36-.46,2.06-.61,2.16-.49,3.98-1.51,5.51-3.16,1.36-1.47,3.06-2.54,5-3.06,3.88-1.03,7.25,1.31,7.71,5.26,.92,7.93-4.41,13.36-13.36,13.35Z"/><path d="M52.43,355.19c-1.05-.2-1.93-.34-2.8-.54-4.13-.98-6.76-3.59-7.08-7.01-.32-3.39,1.75-6.94,5.76-8.07,5.02-1.42,10.28-3.53,15.25,.59,4.31,3.58,4.48,7.75,.17,11.2-3.33,2.66-7.29,3.6-11.31,3.84Z"/><path d="M78.89,328.12c-2.99-.02-5.3-1.49-6.36-4.06-1.51-3.66,.51-9.06,4.59-12.26,2.32-1.82,8.64-1.52,11.15,.57,1.45,1.21,2.22,2.75,2.13,4.69-.22,4.92-6.63,11.1-11.51,11.07Z"/><path d="M273.35,307.7c-.38,1.95-.94,3.87-2.44,5.25-2.51,2.32-5.35,4.19-8.62,5.27-2.87,.95-5.46,.1-6.5-2.04-1.15-2.39-.01-4.22,1.77-5.6,1.86-1.44,3.41-3.1,4.81-4.97,1.34-1.79,3.25-2.81,5.42-3.18,3.52-.6,5.92,1.74,5.56,5.28Z"/><path d="M242.4,319.93c-4.67,.02-10.75-3.99-12.35-8.12-.91-2.34-1.02-4.62,1.01-6.4,2.12-1.87,4.52-1.3,6.33,.34,2.54,2.32,5.66,3.72,8.28,5.85,1.62,1.31,2.58,3.07,1.81,5.2-.83,2.3-2.71,3.18-5.08,3.13Z"/><path d="M388.59,234.42c3.49-.14,5.96,1.99,6.53,5.37,.9,5.32-4.2,11.78-9.6,12.14-2.45,.17-4.06-1.05-4.35-3.64-.47-4.24,1.39-8,3.09-11.66,.75-1.62,2.79-2.07,4.33-2.2Z"/><path d="M415.39,329.24c-.06,3.51-2.91,6.16-6.36,5.52-3.21-.59-6.08-2.12-8.22-4.65-2.29-2.72-1.69-5.4,1.48-6.97,1.58-.78,3.35-1.1,4.91-2.05,3.58-2.17,4.24-1.95,6.14,1.58,1.1,2.05,1.99,4.19,2.06,6.57Z"/><path d="M182.02,225.63c-.55,11.95-6.6,24.64-22.15,25.06-11.15,.3-21.2-7.82-21.95-23.27-.5-10.36,10.8-22.2,20.39-22.25,12.43-.07,23.62,9.59,23.71,20.47Z"/><path d="M338.73,223.06c-2.44,1.99-4.86,2.19-6.95,3.18-3.85,1.83-5.13,4.74-3.8,8.81,1.5,4.58,4.99,7.01,9.77,6.73,1.41-.08,2.82-.37,4.17-.56,1.72,1.08,1.7,2.78,1.64,4.36-.29,8.55-2.33,16.76-6.18,24.33-3.71,7.29-10.33,10.27-17.36,8.66-6.79-1.55-13.02-8.66-13.59-15.68,3.95-1.6,8.62,.25,12.62-2.53-.17-2.3-2.14-3.05-3.85-3.69-2.67-1.01-5.45-1.78-8.24-2.41-2.09-.48-3.3-1.57-3.1-3.68,.97-10.02,2.04-20.05,7.26-28.98,2.93-5.01,7.36-8.11,13.24-7.68,6.13,.44,11.3,3.05,14.37,9.15Z"/><path d="M197.58,364.66c1.12,4.93,2.7,8.85,6.15,12.41,1.75-4.02,3.28-7.53,5-11.47" style="fill:#fff;"/><path d="M314.06,352.18c1.82,3.3,3.45,6.17,5.93,9.11,2.87-4.45,4.24-8.78,4-14.26" style="fill:#fff;"/><path d="M476.09,342.6c-.25-1.23-.61-2.44-.99-3.64-8.53-26.71-20.54-51.69-36.73-74.64-11.34-16.07-23.42-31.35-39.88-42.68-6.69-4.61-13.28-9.28-21.07-11.75-3.2-1.01-4.95-2.77-5.15-5.99-.5-7.93-4.03-14.82-7.24-21.84-5.19-11.36-13.98-18.43-25.75-22.05-7.79-2.4-15.21-1.47-22.41,2.27-7.57,3.92-13.57,9.58-17.63,16.94-2.97,5.38-6.51,7.61-12.51,5.39-3.48-1.28-7.51-.44-10.85-2.42-.48-2.94,1.2-4.95,2.44-7.08,5.51-9.47,11.25-18.77,14.83-29.27,2.4-7.05,2.8-14.01,1.37-21.21-1.94-9.74-7.67-13.19-17.27-10.21-8.27,2.57-14.35,7.95-19.04,15.08-.92,1.4-1.45,3.18-3.05,4.17-1.02-1.38-.67-2.68-.72-3.88-.76-17.79-2.53-35.47-6.55-52.85-1.79-7.74-4.21-15.24-8.95-21.79-8.44-11.66-21.08-11.91-31.2-4.36-8.55,6.39-13.95,15.39-15.03,25.92-1.56,15.16-.3,30.16,6.99,44.1,3.25,6.21,6.17,12.58,9.16,18.92,5.61,11.87,11.15,23.75,19.85,33.82,1.52,1.75,2.67,3.83,3.92,5.8,.64,1.01,1.71,1.95,.85,3.66-6.28,1.18-12.71,2.38-18.82,3.53-1.81-1.74-2.17-3.55-2.76-5.22-2.85-8.03-7.11-15.29-11.85-22.31-9.52-14.11-23.41-18.57-39.41-16.71-13.24,1.54-23.7,8.75-32.1,19.03-7.7,9.43-13.23,20.1-17.8,31.28-4.71,11.51-8.38,23.33-9.1,35.88-.16,2.71-.49,5.38-3.71,6.52-4.68,1.65-8.22,5.04-11.9,8.21-10.28,8.85-18.6,19.34-26.65,30.22-12.54,16.95-22.55,34.98-27.7,55.53-.22,.87-.54,1.71-.88,2.55-4.14,10.26-5.86,21.08-7.3,31.96-.33,2.46,.15,4.65,1.72,6.57,1.59,1.95,3.18,3.89,4.82,5.8,3.7,4.3,8.91,6.63,13.26,10.05,12.67,9.97,25.9,19.06,39.66,27.32,3.73,1.4,9.47,3.55,16.14,6.05,11.44,5.89,22.91,11.69,34.49,17.33,7.05,3.3,14.43,7.15,21.87,9.56,3.3,.96,8.47,1.52,11.78,2.11,42.37,6.41,85.5,8.18,128.15,3.27,17.57-2.04,35.23-4.38,52.15-9.97,5.64-2.11,11.08-4.97,16.32-7.83,19.53-10.9,38.19-23.05,56.53-35.78,3.26-1.79,6.16-3.38,8.5-4.66,6.13-4.28,12.23-8.61,18.21-13.09,9.62-7.21,18.72-15.06,26.39-24.49,3.36-4.13,3.58-8.38,2.62-13.1Zm-179.48-145.71c2.71-7.88,7.38-14.77,12.7-21.14,4-4.79,9.24-7.88,15.12-9.92,10.86-3.78,26.11,3.36,32.1,11.62,1.74,2.4,2.43,5.55,3.67,8.33,5.98,13.44,7.59,27.51,6.23,42.05-.55,5.89-.77,11.81-1.24,17.71-.85,10.55-3.82,20.43-8.31,29.91-2.68,5.66-7.01,9.99-11.99,13.61-4.26,3.09-9.06,4.18-14.29,2.68-7.77-2.23-15.38-4.91-22.86-7.98-7.01-2.88-11.78-7.72-14.27-15.1-3.26-9.65-4.78-19.49-4.7-29.63-.01-14.53,3.16-28.5,7.85-42.13Zm-176.67-5.2c4.43-9.87,9.46-19.42,16.95-27.38,7.07-7.51,15.36-13.46,25.91-14.04,11.33-.63,22.61,.88,30.13,10.82,4.85,6.43,8.63,13.64,11.31,21.36,4.77,13.73,7.27,27.77,6.64,41.58,1.16,22.84-6.64,42.3-17.77,60.76-1.67,2.76-3.24,5.56-5.55,7.92-5,5.11-11.39,6.61-18.11,7.17-7.03,.59-14.03-.23-20.92-1.43-10.94-1.9-18.61-9.04-25.16-17.33-7.45-9.42-10.5-20.64-12.5-32.31-3.45-20.13,.9-38.92,9.06-57.13Zm343.02,164.1c-16.74,14.71-34.97,27.46-52.83,40.71-20.6,12.34-41.71,25.61-63.14,35.54-16.77,6.16-34.86,8.37-52.6,10.54-43.83,5.51-88.15,4.06-131.82-2.36-2.53-.38-5.47-.8-7.75-1.79-21.3-8.91-42.17-19.52-62.88-30.08-14.3-8.68-28.09-18.18-41.42-28.46-4.96-3.83-10.53-6.82-14.84-11.56-2.11-2.32-3.33-4.58-2.65-7.7,.15-.69,.15-1.43,.15-2.15,.11-11.56,7.26-18.14,16.47-23.22,2.97-1.64,6.26-1.33,9.5-1.24,6.82,.21,9.05-1.8,9.55-8.58,.07-.89,.12-1.81,0-2.69-.71-5.61,.71-10.73,3.66-15.42,3.72-5.9,3.62-12.32,2.6-18.78-.72-4.59-2.81-8.53-7.3-10.49,4.34-10.12,25.33-32.79,32.94-35.73,1.68,1.77,1.08,4.05,1.27,6.12,1.3,14.58,4.89,28.45,14.23,40.04,7.77,9.63,16.82,18.08,29.72,19.98,11.79,1.73,23.67,1.62,35.14-2.34,7.3-2.52,12.57-7.75,16.27-14.29,10.62-18.75,18.78-38.46,21.09-60.1,1.18-11.1,.89-22.25-1.14-33.29-.23-1.24-.64-2.45-.09-3.69,4.63-1.52,7.15-.23,7.42,4.16,.2,3.21,.35,6.55-.28,9.67-2.38,11.72,8.29,16.93,17.38,13.35,6.81-2.68,13.43-6.05,19.36-10.51,2.59-1.95,5.24-3.78,8.16-5.21,5.47-2.69,9.73-6.88,12.99-11.85,2.26-3.44,4.67-4.65,8.39-3.33,1.22,1.55,.17,2.86-.31,4.1-4.07,10.41-7.25,21.1-8.71,32.18-2.23,16.89-.43,33.32,6.57,49.04,3.32,7.46,9.55,11.55,16.66,14.45,7.82,3.2,15.96,5.5,24.14,7.61,7.71,2,14.62,.09,20.73-4.73,5.58-4.39,9.96-9.75,12.86-16.36,5.25-11.96,8.45-24.39,9.43-37.42,.55-7.34,1.38-14.66,2.12-21.98,.05-.48,.4-.93,.83-1.86,12.95,5.27,22.75,14.81,34.13,23.57-4.62,2.35-7.73,5.47-10.7,8.72-7.31,8.01-8.24,15-3.13,24.61,1.43,2.68,3.24,5.18,5.03,7.64,2.28,3.13,3.15,6.37,1.68,10.11-.52,1.32-.79,2.77-.98,4.19-1.32,9.7,3.36,15.67,13.2,16.35,12.08,.83,23.11-2.26,32.82-9.67,.71-.54,1.35-1.2,2.42-1.22,1.41,.34,1.53,1.74,2.07,2.83,5.64,11.47,10.08,23.43,14.59,35.36,.44,1.18,.89,2.36,1.24,3.56,2.39,8.01,2.23,8.01-4.21,13.67Z"/></svg>